<?xml version="1.0" encoding="utf-8"?>
<!-- Generator: Adobe Illustrator 16.0.0, SVG Export Plug-In . SVG Version: 6.00 Build 0)  -->
<!DOCTYPE svg PUBLIC "-//W3C//DTD SVG 1.1//EN" "http://www.w3.org/Graphics/SVG/1.1/DTD/svg11.dtd">
<svg version="1.1" id="Layer_1" xmlns="http://www.w3.org/2000/svg" xmlns:xlink="http://www.w3.org/1999/xlink" x="0px" y="0px"
	 width="60px" height="60px" viewBox="0 0 60 60" enable-background="new 0 0 60 60" xml:space="preserve">
<rect x="3.473" y="3.828" fill="#27AAE1" stroke="#27AAE1" stroke-width="6" stroke-linecap="round" stroke-linejoin="round" stroke-miterlimit="10" width="53.055" height="52.344"/>
<path fill="#FFFFFF" d="M12.14,9.593l-7.041,4.015c-0.388,0.221-0.388,0.852,0.001,1.074l7.172,4.088
	c0.194,0.111,0.432,0.111,0.629,0c0.193-0.109,0.313-0.315,0.313-0.536v-1.881l1.688-0.027c0.955-0.023,1.909-0.019,2.861-0.064
	c1.909-0.117,3.815-0.153,5.723-0.35c0.953-0.089,1.907-0.149,2.862-0.263l2.861-0.347c0.952-0.151,1.905-0.274,2.861-0.449
	c0.952-0.164,1.906-0.362,2.86-0.584V14.02c-0.954-0.22-1.908-0.418-2.86-0.58c-0.956-0.175-1.909-0.298-2.861-0.449l-2.861-0.347
	c-0.955-0.119-1.909-0.174-2.86-0.264c-1.91-0.192-3.815-0.237-5.725-0.35c-0.953-0.054-1.907-0.043-2.861-0.068l-1.688-0.029v-1.88
	c0-0.007-0.002-0.014,0-0.025c0-0.34-0.282-0.619-0.627-0.619C12.411,9.408,12.255,9.479,12.14,9.593z"/>
<path fill="#FFFFFF" d="M12.14,31.713l-7.041,4.015C4.711,35.949,4.711,36.58,5.1,36.802l7.172,4.088
	c0.194,0.108,0.432,0.11,0.629,0c0.193-0.109,0.313-0.313,0.313-0.536v-1.88l1.688-0.028c0.955-0.022,1.909-0.02,2.861-0.063
	c1.909-0.119,3.815-0.153,5.723-0.351c0.953-0.09,1.907-0.148,2.862-0.264l2.861-0.348c0.952-0.15,1.905-0.274,2.861-0.448
	c0.952-0.165,1.906-0.362,2.86-0.585v-0.247c-0.954-0.22-1.908-0.419-2.86-0.581c-0.956-0.175-1.909-0.298-2.861-0.448l-2.861-0.347
	c-0.955-0.118-1.909-0.174-2.86-0.264c-1.91-0.195-3.815-0.239-5.725-0.352c-0.953-0.053-1.907-0.043-2.861-0.067l-1.688-0.029
	v-1.881c0-0.007-0.002-0.014,0-0.023c0-0.342-0.282-0.621-0.627-0.621C12.411,31.527,12.255,31.599,12.14,31.713z"/>
<path fill="#FFFFFF" d="M47.861,28.019l7.04-4.014c0.388-0.222,0.388-0.854,0-1.074l-7.173-4.089c-0.194-0.11-0.432-0.11-0.629,0
	c-0.193,0.109-0.314,0.315-0.314,0.536v1.879l-1.688,0.028c-0.954,0.024-1.908,0.019-2.861,0.064
	c-1.907,0.117-3.813,0.153-5.721,0.349c-0.954,0.089-1.906,0.149-2.862,0.265l-2.861,0.346c-0.952,0.151-1.906,0.274-2.859,0.448
	c-0.954,0.166-1.906,0.362-2.863,0.585v0.247c0.955,0.221,1.91,0.419,2.863,0.583c0.953,0.173,1.908,0.298,2.859,0.448l2.863,0.346
	c0.952,0.118,1.906,0.174,2.857,0.264c1.912,0.193,3.816,0.237,5.724,0.35c0.953,0.054,1.907,0.043,2.861,0.068l1.688,0.029v1.881
	c0,0.007,0.003,0.015,0,0.024c0,0.342,0.284,0.621,0.628,0.621C47.592,28.204,47.744,28.132,47.861,28.019z"/>
<path fill="#FFFFFF" d="M47.861,50.408l7.04-4.015c0.388-0.223,0.388-0.854,0-1.073l-7.173-4.09c-0.194-0.11-0.432-0.11-0.629,0
	c-0.193,0.109-0.314,0.315-0.314,0.535v1.879l-1.688,0.028c-0.954,0.026-1.908,0.021-2.861,0.065
	c-1.907,0.116-3.813,0.153-5.721,0.35c-0.954,0.09-1.906,0.149-2.862,0.265l-2.861,0.345c-0.952,0.151-1.906,0.274-2.859,0.449
	c-0.954,0.166-1.906,0.363-2.863,0.584v0.248c0.955,0.222,1.91,0.42,2.863,0.583c0.953,0.175,1.908,0.297,2.859,0.449l2.863,0.345
	c0.952,0.118,1.906,0.173,2.857,0.263c1.912,0.195,3.816,0.24,5.724,0.353c0.953,0.054,1.907,0.043,2.861,0.067l1.688,0.028v1.882
	c0,0.007,0.003,0.014,0,0.024c0,0.341,0.284,0.618,0.628,0.618C47.592,50.591,47.744,50.521,47.861,50.408z"/>
</svg>
