<?xml version="1.0" encoding="utf-8"?>
<!-- Generator: Adobe Illustrator 16.0.0, SVG Export Plug-In . SVG Version: 6.00 Build 0)  -->
<!DOCTYPE svg PUBLIC "-//W3C//DTD SVG 1.1//EN" "http://www.w3.org/Graphics/SVG/1.1/DTD/svg11.dtd">
<svg version="1.1" id="Layer_1" xmlns="http://www.w3.org/2000/svg" xmlns:xlink="http://www.w3.org/1999/xlink" x="0px" y="0px"
	 width="60px" height="60px" viewBox="0 0 60 60" enable-background="new 0 0 60 60" xml:space="preserve">
<g>
	<g>
		<g>
			<path fill="#27AAE1" d="M45.4,1.49H14.6c-0.77,0-1.4,0.63-1.4,1.4v7.2h33.6v-7.2C46.8,2.12,46.17,1.49,45.4,1.49z M41.75,8.38
				c-1.31,0-2.37-1.07-2.37-2.38s1.061-2.38,2.37-2.38S44.12,4.69,44.12,6S43.06,8.38,41.75,8.38z"/>
			<path fill="#27AAE1" d="M13.2,12.84v9.6h33.6v-9.6H13.2z M41.75,19.88c-1.31,0-2.37-1.07-2.37-2.38s1.061-2.38,2.37-2.38
				s2.37,1.07,2.37,2.38S43.06,19.88,41.75,19.88z"/>
			<path fill="#27AAE1" d="M13.2,25.19v31.92c0,0.77,0.63,1.399,1.4,1.399h4.95c0-0.04,0.01-0.09,0.02-0.14l0.57-2.01
				C20.2,56.15,20.4,56,20.62,56h18.76c0.22,0,0.42,0.15,0.48,0.36l0.54,1.89c0.04,0.07,0.069,0.16,0.069,0.26H45.4
				c0.77,0,1.399-0.63,1.399-1.399V25.19H13.2z M41.75,35.62c-0.97,0-1.8-0.58-2.17-1.41H26.16c-0.38,0-0.68-0.3-0.68-0.67v-0.71
				c0-0.37,0.3-0.67,0.68-0.67h13.49c0.399-0.76,1.189-1.28,2.1-1.28c1.31,0,2.37,1.061,2.37,2.37S43.06,35.62,41.75,35.62z"/>
		</g>
	</g>
</g>
</svg>
