<?xml version="1.0" encoding="utf-8"?>
<!-- Generator: Adobe Illustrator 16.0.0, SVG Export Plug-In . SVG Version: 6.00 Build 0)  -->
<!DOCTYPE svg PUBLIC "-//W3C//DTD SVG 1.1//EN" "http://www.w3.org/Graphics/SVG/1.1/DTD/svg11.dtd">
<svg version="1.1" id="Layer_1" xmlns="http://www.w3.org/2000/svg" xmlns:xlink="http://www.w3.org/1999/xlink" x="0px" y="0px"
	 width="60px" height="60px" viewBox="0 0 60 60" enable-background="new 0 0 60 60" xml:space="preserve">
<rect x="3.473" y="3.828" fill="#27AAE1" stroke="#27AAE1" stroke-width="6" stroke-linecap="round" stroke-linejoin="round" stroke-miterlimit="10" width="53.055" height="52.344"/>
<path fill="#FFFFFF" d="M37.73,34.537l7.04-4.014c0.388-0.222,0.388-0.854,0-1.074l-7.173-4.089c-0.194-0.11-0.432-0.11-0.629,0
	c-0.193,0.109-0.314,0.315-0.314,0.536v1.879l-1.688,0.028c-0.954,0.024-1.908,0.019-2.861,0.064
	c-1.907,0.117-3.813,0.153-5.721,0.349c-0.954,0.089-1.906,0.149-2.862,0.265l-2.861,0.346c-0.952,0.151-1.906,0.274-2.859,0.448
	c-0.954,0.166-1.906,0.362-2.863,0.585v0.247c0.955,0.221,1.91,0.419,2.863,0.583c0.953,0.173,1.908,0.298,2.859,0.448l2.863,0.346
	c0.952,0.118,1.906,0.174,2.857,0.265c1.912,0.192,3.816,0.237,5.724,0.35c0.953,0.054,1.907,0.044,2.861,0.068l1.688,0.029v1.881
	c0,0.007,0.003,0.015,0,0.023c0,0.342,0.284,0.621,0.628,0.621C37.461,34.723,37.613,34.651,37.73,34.537z"/>
</svg>
