<?xml version="1.0" encoding="utf-8"?>
<!-- Generator: Adobe Illustrator 16.0.0, SVG Export Plug-In . SVG Version: 6.00 Build 0)  -->
<!DOCTYPE svg PUBLIC "-//W3C//DTD SVG 1.1//EN" "http://www.w3.org/Graphics/SVG/1.1/DTD/svg11.dtd">
<svg version="1.1" id="Layer_1" xmlns="http://www.w3.org/2000/svg" xmlns:xlink="http://www.w3.org/1999/xlink" x="0px" y="0px"
	 width="60px" height="60px" viewBox="0 0 60 60" enable-background="new 0 0 60 60" xml:space="preserve">
<circle fill="#27AAE1" cx="30" cy="30" r="30.014"/>
<g>
	<path fill="#FFFFFF" d="M10.483,42.082l-0.569,7.146c-0.032,0.396,0.486,0.908,0.879,0.88l7.279-0.58
		c0.194-0.016,0.327-0.146,0.344-0.344c0.017-0.195-0.085-0.431-0.267-0.609l-1.54-1.54l0.902-0.948
		c0.505-0.542,1.03-1.061,1.516-1.619c0.948-1.142,1.965-2.215,2.847-3.421c0.452-0.596,0.924-1.167,1.352-1.783l1.285-1.848
		c0.396-0.647,0.818-1.272,1.199-1.938c0.386-0.655,0.744-1.341,1.085-2.045l-0.202-0.205c-0.701,0.344-1.388,0.703-2.04,1.093
		c-0.667,0.379-1.292,0.805-1.938,1.2l-1.849,1.282c-0.62,0.425-1.187,0.904-1.783,1.353c-1.204,0.884-2.282,1.895-3.423,2.845
		c-0.563,0.48-1.077,1.011-1.622,1.513l-0.946,0.901l-1.541-1.54c-0.008-0.006-0.015-0.01-0.021-0.021
		c-0.281-0.277-0.662-0.353-0.853-0.162C10.482,41.785,10.452,41.929,10.483,42.082z"/>
	<path fill="#FFFFFF" d="M49.517,17.915l0.567-7.146c0.033-0.393-0.485-0.909-0.878-0.879l-7.278,0.58
		c-0.197,0.017-0.327,0.147-0.344,0.346c-0.016,0.197,0.087,0.43,0.268,0.611l1.54,1.54l-0.903,0.946
		c-0.504,0.542-1.029,1.062-1.514,1.62c-0.949,1.141-1.966,2.216-2.849,3.421c-0.448,0.595-0.921,1.167-1.352,1.784l-1.282,1.851
		c-0.398,0.645-0.817,1.27-1.199,1.933c-0.385,0.658-0.747,1.342-1.088,2.046l0.203,0.203c0.703-0.342,1.389-0.702,2.044-1.09
		c0.665-0.38,1.287-0.803,1.934-1.202l1.85-1.282c0.619-0.426,1.188-0.903,1.783-1.351c1.204-0.887,2.283-1.896,3.422-2.848
		c0.565-0.477,1.079-1.008,1.622-1.511l0.948-0.901l1.542,1.541c0.005,0.006,0.011,0.011,0.02,0.021
		c0.278,0.279,0.661,0.351,0.852,0.164C49.518,18.215,49.547,18.07,49.517,17.915z"/>
</g>
<path fill="#FFFFFF" d="M18.947,26.384l7.146,0.569c0.396,0.032,0.909-0.486,0.879-0.879l-0.58-7.279
	c-0.015-0.194-0.146-0.327-0.344-0.344c-0.195-0.017-0.431,0.086-0.609,0.267l-1.54,1.54l-0.949-0.902
	c-0.542-0.505-1.061-1.03-1.62-1.516c-1.141-0.948-2.214-1.965-3.421-2.847c-0.595-0.452-1.166-0.924-1.783-1.352l-1.847-1.285
	c-0.648-0.396-1.272-0.818-1.939-1.199c-0.655-0.386-1.341-0.744-2.044-1.085l-0.205,0.202c0.344,0.701,0.703,1.388,1.092,2.04
	c0.379,0.667,0.805,1.292,1.2,1.938l1.283,1.849c0.425,0.62,0.904,1.187,1.352,1.783c0.884,1.204,1.895,2.282,2.845,3.423
	c0.481,0.563,1.011,1.077,1.513,1.622l0.901,0.946l-1.541,1.541c-0.005,0.008-0.009,0.015-0.021,0.021
	c-0.278,0.281-0.353,0.662-0.162,0.853C18.651,26.385,18.794,26.416,18.947,26.384z"/>
<path fill="#FFFFFF" d="M41.051,33.618l-7.146-0.567c-0.393-0.033-0.909,0.485-0.879,0.878l0.58,7.277
	c0.018,0.197,0.147,0.328,0.347,0.345c0.197,0.016,0.43-0.087,0.61-0.268l1.54-1.54l0.945,0.903c0.543,0.504,1.062,1.029,1.62,1.514
	c1.142,0.949,2.217,1.965,3.421,2.848c0.596,0.448,1.168,0.922,1.784,1.353l1.852,1.282c0.644,0.397,1.27,0.817,1.933,1.199
	c0.658,0.385,1.342,0.746,2.047,1.087l0.203-0.203c-0.343-0.703-0.702-1.389-1.09-2.044c-0.381-0.665-0.804-1.287-1.202-1.933
	l-1.281-1.85c-0.427-0.619-0.903-1.188-1.352-1.783c-0.887-1.204-1.896-2.284-2.848-3.423c-0.477-0.564-1.009-1.078-1.512-1.621
	l-0.901-0.949l1.541-1.541c0.006-0.005,0.011-0.012,0.021-0.02c0.278-0.279,0.352-0.661,0.163-0.852
	C41.351,33.617,41.206,33.588,41.051,33.618z"/>
</svg>
