<?xml version="1.0" encoding="utf-8"?>
<!-- Generator: Adobe Illustrator 16.0.0, SVG Export Plug-In . SVG Version: 6.00 Build 0)  -->
<!DOCTYPE svg PUBLIC "-//W3C//DTD SVG 1.1//EN" "http://www.w3.org/Graphics/SVG/1.1/DTD/svg11.dtd">
<svg version="1.1" id="Layer_1" xmlns="http://www.w3.org/2000/svg" xmlns:xlink="http://www.w3.org/1999/xlink" x="0px" y="0px"
	 width="60px" height="60px" viewBox="0 0 60 60" enable-background="new 0 0 60 60" xml:space="preserve">
<path fill="#262262" d="M46.8,2.89v54.22c0,0.77-0.63,1.399-1.399,1.399H14.6c-0.77,0-1.4-0.63-1.4-1.399V2.89
	c0-0.77,0.63-1.4,1.4-1.4h30.8C46.17,1.49,46.8,2.12,46.8,2.89z"/>
<rect x="11.531" y="22.443" fill="#FFFFFF" width="37.609" height="2.751"/>
<g>
	<rect x="26.156" y="32.83" fill="#FFFFFF" width="16.234" height="0.709"/>
	<path fill="#FFFFFF" d="M42.39,34.214H26.156c-0.373,0-0.674-0.303-0.674-0.675V32.83c0-0.372,0.302-0.675,0.674-0.675H42.39
		c0.372,0,0.675,0.303,0.675,0.675v0.709C43.064,33.911,42.762,34.214,42.39,34.214z"/>
</g>
<rect x="11.531" y="10.091" fill="#FFFFFF" width="37.609" height="2.751"/>
<circle fill="#FFFFFF" cx="41.75" cy="6" r="2.375"/>
<circle fill="#FFFFFF" cx="41.75" cy="17.5" r="2.375"/>
<g>
	<circle fill="#FFFFFF" cx="41.75" cy="33.25" r="2.375"/>
</g>
<polygon fill="#FFFFFF" stroke="#FFFFFF" stroke-linecap="round" stroke-linejoin="round" stroke-miterlimit="10" points="
	39.95,58.51 20.05,58.51 20.62,56.5 39.38,56.5 "/>
</svg>
